<svg width="48" height="48" viewBox="0 0 48 48" fill="none" xmlns="http://www.w3.org/2000/svg">
<rect width="48" height="48" rx="24" fill="white"/>
<path fill-rule="evenodd" clip-rule="evenodd" d="M31.8839 23.9966C31.8839 19.6405 28.3526 16.1091 23.9965 16.1091C19.6404 16.1091 16.1091 19.6405 16.1091 23.9966C16.1091 28.3527 19.6404 31.884 23.9965 31.884C28.3526 31.884 31.8839 28.3527 31.8839 23.9966ZM23.9965 31.884C23.4661 31.884 22.948 31.8312 22.4468 31.7314V25.7257H21.1605V23.5813H22.4468V22.294C22.4468 20.5446 23.173 19.5045 25.2366 19.5045H26.9545V21.6491H25.8807C25.0774 21.6491 25.0242 21.9486 25.0242 22.5079L25.0213 23.5811H26.9666L26.7389 25.7254H25.0213V31.8178C24.6815 31.8619 24.3392 31.884 23.9965 31.884Z" fill="url(#paint0_linear_34_973)"/>
<defs>
<linearGradient id="paint0_linear_34_973" x1="16.1091" y1="16.1091" x2="33.5159" y2="30.6005" gradientUnits="userSpaceOnUse">
<stop stop-color="#7656A3"/>
<stop offset="1" stop-color="#5066AE"/>
</linearGradient>
</defs>
</svg>
