<svg width="50" height="50" viewBox="0 0 50 50" fill="none" xmlns="http://www.w3.org/2000/svg">
<rect width="50" height="50" rx="25" fill="white"/>
<path d="M30.2875 19.6825C29.5998 18.9881 28.7808 18.4375 27.8781 18.0628C26.9755 17.6881 26.0073 17.4968 25.03 17.5C20.935 17.5 17.5975 20.8375 17.5975 24.9325C17.5975 26.245 17.9425 27.52 18.5875 28.645L17.5375 32.5L21.475 31.465C22.5625 32.0575 23.785 32.3725 25.03 32.3725C29.125 32.3725 32.4625 29.035 32.4625 24.94C32.4625 22.9525 31.69 21.085 30.2875 19.6825ZM25.03 31.1125C23.92 31.1125 22.8325 30.8125 21.88 30.25L21.655 30.115L19.315 30.73L19.9375 28.45L19.7875 28.2175C19.1707 27.2328 18.8432 26.0945 18.8425 24.9325C18.8425 21.5275 21.6175 18.7525 25.0225 18.7525C26.6725 18.7525 28.225 19.3975 29.3875 20.5675C29.9632 21.1404 30.4194 21.8219 30.7297 22.5725C31.04 23.3231 31.1981 24.1279 31.195 24.94C31.21 28.345 28.435 31.1125 25.03 31.1125ZM28.42 26.4925C28.2325 26.4025 27.3175 25.9525 27.1525 25.885C26.98 25.825 26.86 25.795 26.7325 25.975C26.605 26.1625 26.2525 26.5825 26.1475 26.7025C26.0425 26.83 25.93 26.845 25.7425 26.7475C25.555 26.6575 24.955 26.455 24.25 25.825C23.695 25.33 23.3275 24.7225 23.215 24.535C23.11 24.3475 23.2 24.25 23.2975 24.1525C23.38 24.07 23.485 23.935 23.575 23.83C23.665 23.725 23.7025 23.6425 23.7625 23.5225C23.8225 23.395 23.7925 23.29 23.7475 23.2C23.7025 23.11 23.3275 22.195 23.1775 21.82C23.0275 21.46 22.87 21.505 22.7575 21.4975H22.3975C22.27 21.4975 22.075 21.5425 21.9025 21.73C21.7375 21.9175 21.2575 22.3675 21.2575 23.2825C21.2575 24.1975 21.925 25.0825 22.015 25.2025C22.105 25.33 23.3275 27.205 25.1875 28.0075C25.63 28.2025 25.975 28.315 26.245 28.3975C26.6875 28.54 27.0925 28.5175 27.415 28.4725C27.775 28.42 28.5175 28.0225 28.6675 27.5875C28.825 27.1525 28.825 26.785 28.7725 26.7025C28.72 26.62 28.6075 26.5825 28.42 26.4925Z" fill="url(#paint0_linear_34_979)"/>
<defs>
<linearGradient id="paint0_linear_34_979" x1="17.5375" y1="17.5" x2="34.0741" y2="31.198" gradientUnits="userSpaceOnUse">
<stop stop-color="#7656A3"/>
<stop offset="1" stop-color="#5066AE"/>
</linearGradient>
</defs>
</svg>
